<mxfile host="app.diagrams.net" agent="Mozilla/5.0 (Windows NT 10.0; Win64; x64) AppleWebKit/537.36 (KHTML, like Gecko) Chrome/130.0.0.0 Safari/537.36" version="25.0.3">
  <diagram name="Trang-1" id="J9AZnkohg5xKJPqaUdoi">
    <mxGraphModel dx="1006" dy="531" grid="1" gridSize="10" guides="1" tooltips="1" connect="1" arrows="1" fold="1" page="1" pageScale="1" pageWidth="827" pageHeight="1169" math="0" shadow="0">
      <root>
        <mxCell id="0" />
        <mxCell id="1" parent="0" />
        <mxCell id="fS9DcUY2S1qJ4PNe0iJw-3" style="edgeStyle=orthogonalEdgeStyle;rounded=0;orthogonalLoop=1;jettySize=auto;html=1;exitX=0.5;exitY=1;exitDx=0;exitDy=0;entryX=0.5;entryY=0;entryDx=0;entryDy=0;" edge="1" parent="1" source="fS9DcUY2S1qJ4PNe0iJw-1" target="fS9DcUY2S1qJ4PNe0iJw-2">
          <mxGeometry relative="1" as="geometry" />
        </mxCell>
        <mxCell id="fS9DcUY2S1qJ4PNe0iJw-1" value="Start" style="rounded=0;whiteSpace=wrap;html=1;" vertex="1" parent="1">
          <mxGeometry x="180" y="110" width="120" height="60" as="geometry" />
        </mxCell>
        <mxCell id="fS9DcUY2S1qJ4PNe0iJw-5" value="" style="edgeStyle=orthogonalEdgeStyle;rounded=0;orthogonalLoop=1;jettySize=auto;html=1;" edge="1" parent="1" source="fS9DcUY2S1qJ4PNe0iJw-2" target="fS9DcUY2S1qJ4PNe0iJw-4">
          <mxGeometry relative="1" as="geometry" />
        </mxCell>
        <mxCell id="fS9DcUY2S1qJ4PNe0iJw-24" style="edgeStyle=orthogonalEdgeStyle;rounded=0;orthogonalLoop=1;jettySize=auto;html=1;exitX=0.5;exitY=1;exitDx=0;exitDy=0;entryX=0.5;entryY=0;entryDx=0;entryDy=0;" edge="1" parent="1" source="fS9DcUY2S1qJ4PNe0iJw-2" target="fS9DcUY2S1qJ4PNe0iJw-6">
          <mxGeometry relative="1" as="geometry" />
        </mxCell>
        <mxCell id="fS9DcUY2S1qJ4PNe0iJw-25" style="edgeStyle=orthogonalEdgeStyle;rounded=0;orthogonalLoop=1;jettySize=auto;html=1;exitX=0.5;exitY=1;exitDx=0;exitDy=0;entryX=0.5;entryY=0;entryDx=0;entryDy=0;" edge="1" parent="1" source="fS9DcUY2S1qJ4PNe0iJw-2" target="fS9DcUY2S1qJ4PNe0iJw-20">
          <mxGeometry relative="1" as="geometry" />
        </mxCell>
        <mxCell id="fS9DcUY2S1qJ4PNe0iJw-26" style="edgeStyle=orthogonalEdgeStyle;rounded=0;orthogonalLoop=1;jettySize=auto;html=1;exitX=0.5;exitY=1;exitDx=0;exitDy=0;entryX=0.5;entryY=0;entryDx=0;entryDy=0;" edge="1" parent="1" source="fS9DcUY2S1qJ4PNe0iJw-2" target="fS9DcUY2S1qJ4PNe0iJw-8">
          <mxGeometry relative="1" as="geometry" />
        </mxCell>
        <mxCell id="fS9DcUY2S1qJ4PNe0iJw-2" value="Nhập giá trị a và b" style="rounded=0;whiteSpace=wrap;html=1;" vertex="1" parent="1">
          <mxGeometry x="180" y="270" width="120" height="60" as="geometry" />
        </mxCell>
        <mxCell id="fS9DcUY2S1qJ4PNe0iJw-28" style="edgeStyle=orthogonalEdgeStyle;rounded=0;orthogonalLoop=1;jettySize=auto;html=1;exitX=0.5;exitY=1;exitDx=0;exitDy=0;entryX=0;entryY=0.5;entryDx=0;entryDy=0;" edge="1" parent="1" source="fS9DcUY2S1qJ4PNe0iJw-4" target="fS9DcUY2S1qJ4PNe0iJw-9">
          <mxGeometry relative="1" as="geometry" />
        </mxCell>
        <mxCell id="fS9DcUY2S1qJ4PNe0iJw-4" value="Tính X1 = A+B" style="rounded=0;whiteSpace=wrap;html=1;" vertex="1" parent="1">
          <mxGeometry x="60" y="495" width="120" height="60" as="geometry" />
        </mxCell>
        <mxCell id="fS9DcUY2S1qJ4PNe0iJw-27" style="edgeStyle=orthogonalEdgeStyle;rounded=0;orthogonalLoop=1;jettySize=auto;html=1;exitX=0.5;exitY=1;exitDx=0;exitDy=0;entryX=0.5;entryY=0;entryDx=0;entryDy=0;" edge="1" parent="1" source="fS9DcUY2S1qJ4PNe0iJw-6" target="fS9DcUY2S1qJ4PNe0iJw-9">
          <mxGeometry relative="1" as="geometry" />
        </mxCell>
        <mxCell id="fS9DcUY2S1qJ4PNe0iJw-6" value="Tính X2=A-B" style="rounded=0;whiteSpace=wrap;html=1;" vertex="1" parent="1">
          <mxGeometry x="240" y="495" width="120" height="60" as="geometry" />
        </mxCell>
        <mxCell id="fS9DcUY2S1qJ4PNe0iJw-17" style="edgeStyle=orthogonalEdgeStyle;rounded=0;orthogonalLoop=1;jettySize=auto;html=1;exitX=0.5;exitY=1;exitDx=0;exitDy=0;entryX=1;entryY=0.5;entryDx=0;entryDy=0;" edge="1" parent="1" source="fS9DcUY2S1qJ4PNe0iJw-8" target="fS9DcUY2S1qJ4PNe0iJw-9">
          <mxGeometry relative="1" as="geometry" />
        </mxCell>
        <mxCell id="fS9DcUY2S1qJ4PNe0iJw-8" value="Tính X4=A/B" style="rounded=0;whiteSpace=wrap;html=1;" vertex="1" parent="1">
          <mxGeometry x="610" y="495" width="120" height="60" as="geometry" />
        </mxCell>
        <mxCell id="fS9DcUY2S1qJ4PNe0iJw-18" style="edgeStyle=orthogonalEdgeStyle;rounded=0;orthogonalLoop=1;jettySize=auto;html=1;exitX=0.5;exitY=1;exitDx=0;exitDy=0;entryX=0.5;entryY=0;entryDx=0;entryDy=0;" edge="1" parent="1" source="fS9DcUY2S1qJ4PNe0iJw-9" target="fS9DcUY2S1qJ4PNe0iJw-10">
          <mxGeometry relative="1" as="geometry" />
        </mxCell>
        <mxCell id="fS9DcUY2S1qJ4PNe0iJw-9" value="Hiện Thị Kết Quả&amp;nbsp;" style="rounded=0;whiteSpace=wrap;html=1;" vertex="1" parent="1">
          <mxGeometry x="240" y="850" width="120" height="60" as="geometry" />
        </mxCell>
        <mxCell id="fS9DcUY2S1qJ4PNe0iJw-10" value="Kết Thúc" style="ellipse;whiteSpace=wrap;html=1;" vertex="1" parent="1">
          <mxGeometry x="240" y="1040" width="120" height="80" as="geometry" />
        </mxCell>
        <mxCell id="fS9DcUY2S1qJ4PNe0iJw-22" style="edgeStyle=orthogonalEdgeStyle;rounded=0;orthogonalLoop=1;jettySize=auto;html=1;exitX=0.5;exitY=1;exitDx=0;exitDy=0;entryX=1;entryY=0.5;entryDx=0;entryDy=0;" edge="1" parent="1" source="fS9DcUY2S1qJ4PNe0iJw-20" target="fS9DcUY2S1qJ4PNe0iJw-9">
          <mxGeometry relative="1" as="geometry" />
        </mxCell>
        <mxCell id="fS9DcUY2S1qJ4PNe0iJw-20" value="Tính X3= A*B" style="rounded=0;whiteSpace=wrap;html=1;" vertex="1" parent="1">
          <mxGeometry x="430" y="495" width="120" height="60" as="geometry" />
        </mxCell>
      </root>
    </mxGraphModel>
  </diagram>
</mxfile>
